<?xml version="1.0"?>
<svg xmlns="http://www.w3.org/2000/svg" xmlns:xlink="http://www.w3.org/1999/xlink" version="1.1" id="Layer_1" x="0px" y="0px" viewBox="0 0 512 512" style="enable-background:new 0 0 512 512;" xml:space="preserve" width="512px" height="512px" class=""><g><g>
	<g>
		<path d="M496.327,119.641h-131.76L349.48,85.148c-2.496-5.705-8.132-9.393-14.36-9.393H176.88c-6.228,0-11.864,3.686-14.36,9.393    l-15.087,34.493h-28.694V91.429c0-8.656-7.018-15.673-15.673-15.673H59.369c-8.656,0-15.673,7.018-15.673,15.673v28.212H15.673    C7.018,119.641,0,126.658,0,135.314v285.257c0,8.656,7.018,15.673,15.673,15.673h480.653c8.656,0,15.673-7.018,15.673-15.673    V135.314C512,126.658,504.982,119.641,496.327,119.641z M256,381.388c-56.831,0-103.066-46.405-103.066-103.445    S199.169,174.498,256,174.498s103.066,46.405,103.066,103.445S312.831,381.388,256,381.388z M430.783,223.086    c-12.066,0-21.848-9.824-21.848-21.943s9.781-21.943,21.848-21.943c12.067,0,21.848,9.824,21.848,21.943    S442.85,223.086,430.783,223.086z" data-original="#000000" class="active-path" data-old_color="#000000" fill="#D0D0D0"/>
	</g>
</g></g> </svg>
